<svg xmlns="http://www.w3.org/2000/svg" xmlnsxlink="http://www.w3.org/1999/xlink" version="1.1" x="0px" y="0px" viewBox="0 0 66 66.5" style="enable-background:new 0 0 66 66;" fill="#878787" xmlspace="preserve"><polygon points="4,30.69 4,23.13 1.83,23.82 "/><polygon points="12.69,58.48 29.47,53.17 11.01,53.17 "/><polygon points="62,34.97 62,42.53 64.17,41.84 "/><polygon points="53.31,7.52 36.53,12.83 54.99,12.83 "/><path d="M6,43.83h3.43L19.8,26.19c0.36-0.61,1.37-0.61,1.72,0l9.93,16.9l6.2-7.55c0.2-0.24,0.51-0.37,0.82-0.36  c0.31,0.01,0.6,0.17,0.78,0.43l5.62,8.22H60v-29H6V43.83z M48,19.83c3.87,0,7,3.13,7,7c0,3.87-3.13,7-7,7s-7-3.13-7-7  C41,22.96,44.13,19.83,48,19.83z"/><path d="M43.52,45.4l-5.17-7.56l-6.26,7.63c-0.19,0.23-0.48,0.37-0.77,0.37c-0.03,0-0.05,0-0.08,0c-0.33-0.03-0.62-0.21-0.78-0.49  l-9.8-16.67l-9.8,16.67c-0.18,0.31-0.51,0.49-0.86,0.49H6v5h54v-5H44.34C44.01,45.83,43.7,45.67,43.52,45.4z"/></svg>