<svg xmlns="http://www.w3.org/2000/svg" xmlnsxlink="http://www.w3.org/1999/xlink" xmlnsserif="http://www.serif.com/" viewBox="0 0 100 100" version="1.1" xmlspace="preserve" fill="#878787" style="" x="0px" y="0px" fill-rule="evenodd" clip-rule="evenodd" stroke-linejoin="round" stroke-miterlimit="2"><g transform="matrix(1,0,0,1,-6,-306)"><g serifid="EXP semi outline"><path d="M23.389,335.418L19.126,335.418C18.752,335.418 18.398,335.585 18.161,335.874C17.923,336.162 17.827,336.542 17.899,336.908L27.081,383.758C27.196,384.344 27.71,384.767 28.308,384.767L75.578,384.767L75.578,382.267L29.337,382.267C29.337,382.267 20.644,337.918 20.644,337.918L90.519,337.918L83.565,372.351L79.854,368.64C80.986,366.374 81.623,363.818 81.623,361.115C81.623,351.802 74.062,344.242 64.75,344.242C55.437,344.242 47.877,351.802 47.877,361.115C47.877,370.428 55.437,377.988 64.75,377.988C67.453,377.988 70.009,377.351 72.275,376.219L82.131,386.076C84.224,388.168 87.616,388.168 89.709,386.076L89.71,386.074C91.803,383.981 91.803,380.589 89.71,378.497L85.687,374.473L93.272,336.915C93.346,336.548 93.251,336.166 93.014,335.876C92.777,335.586 92.422,335.418 92.047,335.418L88.156,335.418L88.156,324.239C88.156,323.549 87.597,322.989 86.906,322.989L71.144,322.989C70.729,322.989 70.341,323.195 70.109,323.539L66.944,328.22C66.944,328.22 24.524,328.22 24.524,328.22C24.189,328.22 23.867,328.356 23.632,328.595C23.397,328.835 23.268,329.159 23.275,329.495L23.389,335.418ZM81.405,373.727C80.363,375.367 79.025,376.726 77.412,377.821L83.899,384.308C85.015,385.424 86.825,385.424 87.941,384.308C87.941,384.308 87.943,384.306 87.943,384.306C89.059,383.19 89.059,381.38 87.943,380.264L81.405,373.727ZM64.75,346.742C72.682,346.742 79.123,353.182 79.123,361.115C79.123,369.048 72.682,375.488 64.75,375.488C56.817,375.488 50.377,369.048 50.377,361.115C50.377,353.182 56.817,346.742 64.75,346.742ZM40.356,373.016L46.642,366.73L44.874,364.963L38.588,371.249L40.356,373.016ZM29.185,363.43L44.317,363.43L44.317,360.93L29.185,360.93L29.185,363.43ZM37.949,352.898L44.235,359.184L46.003,357.416L39.717,351.13L37.949,352.898ZM85.656,330.883L85.656,325.489C85.656,325.489 71.808,325.489 71.808,325.489L68.643,330.171C68.41,330.514 68.022,330.72 67.607,330.72C67.607,330.72 25.799,330.72 25.799,330.72L25.89,335.418L34.414,335.418L85.656,330.883Z"/></g></g></svg>